<?xml version="1.0" encoding="UTF-8" standalone="no"?>
<!DOCTYPE svg PUBLIC "-//W3C//DTD SVG 1.1//EN" "http://www.w3.org/Graphics/SVG/1.1/DTD/svg11.dtd">


<svg width="100%" height="100%" viewBox="0 0 2778 2778" version="1.1" xmlns="http://www.w3.org/2000/svg" xmlns:xlink="http://www.w3.org/1999/xlink" xml:space="preserve" xmlns:serif="http://www.serif.com/" style="fill-rule:evenodd;clip-rule:evenodd;stroke-linejoin:round;stroke-miterlimit:2;">
    <g transform="matrix(5.55556,0,0,5.55556,0,0)">
        <g id="Background-Complete" serif:id="Background Complete">
            <g transform="matrix(1,0,0,1,136.306,57.8519)">
                <path d="M0,68.519C-18.921,68.519 -34.259,53.181 -34.259,34.26C-34.259,15.339 -18.921,0 0,0C18.921,0 34.259,15.339 34.259,34.26C34.259,53.181 18.921,68.519 0,68.519" style="fill:rgb(235,235,235);fill-rule:nonzero;"/>
            </g>
            <g transform="matrix(1,0,0,1,0,-308.144)">
                <rect x="120.772" y="392.619" width="7.09" height="22.906" style="fill:white;"/>
            </g>
            <g transform="matrix(1,0,0,1,124.283,73.0214)">
                <path d="M0,8.454C2.316,8.454 4.193,6.56 4.193,4.226C4.193,1.893 2.316,0 0,0C-2.316,0 -4.193,1.893 -4.193,4.226C-4.193,6.56 -2.316,8.454 0,8.454" style="fill:white;fill-rule:nonzero;"/>
            </g>
            <g transform="matrix(1,0,0,1,139.196,95.7998)">
                <path d="M0,-0.443C0,-3.663 1.481,-5.582 4.32,-5.582C6.927,-5.582 8.18,-3.74 8.18,-0.443L8.18,11.581L15.237,11.581L15.237,-2.922C15.237,-9.057 11.759,-12.024 6.903,-12.024C2.044,-12.024 0,-8.239 0,-8.239L0,-11.325L-6.802,-11.325L-6.802,11.581L0,11.581L0,-0.443Z" style="fill:white;fill-rule:nonzero;"/>
            </g>
            <g transform="matrix(1,0,0,1,182.22,50.424)">
                <path d="M0,-26.538L4.691,-17.96L13.269,-13.269L4.691,-8.578L0,0L-4.691,-8.578L-13.269,-13.269L-4.691,-17.96L0,-26.538Z" style="fill:rgb(245,245,245);fill-rule:nonzero;"/>
            </g>
            <g transform="matrix(1,0,0,1,377.871,276.176)">
                <path d="M0,-19.903L3.518,-13.469L9.951,-9.952L3.518,-6.433L0,0L-3.519,-6.433L-9.952,-9.952L-3.519,-13.469L0,-19.903Z" style="fill:rgb(235,235,235);fill-rule:nonzero;"/>
            </g>
            <g transform="matrix(1,0,0,1,387.822,233.488)">
                <path d="M0,-8.98L1.588,-6.078L4.49,-4.49L1.588,-2.902L0,0L-1.587,-2.902L-4.49,-4.49L-1.587,-6.078L0,-8.98Z" style="fill:rgb(224,224,224);fill-rule:nonzero;"/>
            </g>
            <g transform="matrix(1,0,0,1,148.713,36.0926)">
                <path d="M0,-8.98L1.587,-6.078L4.49,-4.49L1.587,-2.903L0,0L-1.587,-2.903L-4.49,-4.49L-1.587,-6.078L0,-8.98Z" style="fill:rgb(224,224,224);fill-rule:nonzero;"/>
            </g>
            <g transform="matrix(1,0,0,1,69.1334,295.544)">
                <path d="M0,1.214C3.579,-0.343 6.09,-4.087 6.055,-8.46C6.004,-14.189 1.609,-18.798 -3.764,-18.753C-9.134,-18.708 -13.448,-14.027 -13.397,-8.299C-13.359,-3.885 -10.732,-0.162 -7.075,1.305C-22.013,3.754 -21.123,20.012 -21.123,20.012L14.271,19.717C14.271,19.717 14.866,3.262 0,1.214" style="fill:rgb(224,224,224);fill-rule:nonzero;"/>
            </g>
            <g transform="matrix(1,0,0,1,408.635,414.142)">
                <path d="M0,-10.204C-0.501,-12.751 -3.013,-14.742 -5.605,-14.648C-8.176,-14.556 -10.516,-12.426 -10.865,-9.881C-11.237,-12.423 -13.596,-14.532 -16.166,-14.601C-18.761,-14.672 -21.255,-12.659 -21.732,-10.108C-22.081,-8.251 -21.444,-6.317 -20.398,-4.743C-19.353,-3.169 -17.925,-1.893 -16.513,-0.637C-14.535,1.123 -12.708,2.778 -10.729,4.538C-8.768,2.761 -7.099,1.091 -5.136,-0.687C-3.735,-1.956 -2.318,-3.244 -1.287,-4.827C-0.256,-6.411 0.364,-8.35 0,-10.204" style="fill:rgb(235,235,235);fill-rule:nonzero;"/>
            </g>
            <g transform="matrix(1,0,0,1,431.687,193.919)">
                <path d="M0,-0.769L3.793,-1.521L9.782,-14.697L8.281,-22.268C8.281,-22.268 14.071,-23.791 15.348,-13.741C16.624,-3.69 16.87,-6.363 16.87,-6.363C16.87,-6.363 29.327,-8.784 30.575,-7.907C31.483,-7.271 34.275,5.026 35.736,11.706C36.471,15.069 35.022,18.619 32.042,20.04C31.618,20.242 31.181,20.398 30.737,20.485C27.634,21.101 11.271,21.723 11.271,21.723L4.719,23.022L0,-0.769Z" style="fill:rgb(224,224,224);fill-rule:nonzero;"/>
            </g>
            <g transform="matrix(0.281593,0.959534,0.959534,-0.281593,437.071,195.232)">
                <path d="M-6.615,-15.414L19.937,-15.414L20.53,-8.818L-5.279,-6.498L-6.615,-15.414Z" style="fill:rgb(224,224,224);fill-rule:nonzero;"/>
            </g>
        </g>
        <g transform="matrix(0,-1,-1,0,248.986,247.84)">
            <g id="Floor">
                <path d="M-221.482,-221.483C-221.628,-221.483 -221.743,-122.313 -221.743,-0.01C-221.743,122.335 -221.628,221.482 -221.482,221.482C-221.338,221.482 -221.223,122.335 -221.223,-0.01C-221.223,-122.313 -221.338,-221.483 -221.482,-221.483" style="fill:rgb(38,50,56);fill-rule:nonzero;"/>
            </g>
        </g>
        <g id="Icons">
            <g>
                <g transform="matrix(0.899281,-0.437371,-0.437371,-0.899281,407.623,171.697)">
                    <path d="M-17.771,-4.092C-40.209,-4.092 -58.401,14.098 -58.401,36.538C-58.401,58.977 -40.211,77.168 -17.771,77.168C4.669,77.168 22.86,58.978 22.86,36.538C22.86,14.098 4.669,-4.093 -17.771,-4.092" style="fill:rgb(232,80,91);fill-rule:nonzero;"/>
                </g>
                <g transform="matrix(1,0,0,1,365.621,137.071)">
                    <path d="M0,18.623C0.684,18.58 1.087,18.106 0.945,17.394C0.847,16.901 0.583,15.664 0.48,15.145C0.344,14.437 0.173,14.251 -0.554,13.931C-2.133,13.235 -3.521,12.013 -4.576,9.841C-7.64,3.542 -5.67,-4.389 1.89,-8.065C8.583,-11.321 14.25,-9.019 16.907,-3.556C20.402,3.63 20.172,11.243 15.45,13.539C12.842,14.808 9.842,13.601 9.181,10.653C8.396,7.129 8.188,3.017 7.079,0.736C6.087,-1.304 4.164,-2.473 1.897,-1.371C-0.769,-0.074 -1.569,3.725 0.228,7.419C1.372,9.772 2.942,10.977 2.942,10.977C2.942,10.977 5.836,23.863 6.342,26.119C7.349,30.613 10.563,35.162 10.874,35.627C11.06,35.904 11.473,35.788 11.536,35.482C11.627,35.041 12.895,29.577 12.067,25.136C11.835,23.879 10.49,17.433 10.49,17.433C12.159,18.664 15.398,18.886 18.089,17.577C26.103,13.68 27.986,3.731 23.23,-6.046C19.634,-13.44 10.024,-17.281 0.506,-12.651C-11.337,-6.891 -13.18,4.504 -9.735,11.584C-7.65,15.872 -4.172,18.896 0,18.623" style="fill:white;fill-rule:nonzero;"/>
                </g>
            </g>
            <g>
                <g transform="matrix(0.934127,0.35694,0.35694,-0.934127,425.327,292.461)">
                    <path d="M10.003,-1.846C-5.474,-1.846 -18.019,10.7 -18.02,26.177C-18.02,41.653 -5.474,54.2 10.003,54.2C25.479,54.2 38.025,41.654 38.026,26.178C38.025,10.701 25.479,-1.845 10.003,-1.846" style="fill:rgb(232,80,91);fill-rule:nonzero;"/>
                </g>
                <g transform="matrix(1,0,0,1,439.923,259.63)">
                    <path d="M0,23.439C-2.409,22.519 -4.374,20.951 -5.777,19.002L-10.886,18.712L-7.738,14.909C-8.415,12.426 -8.344,9.723 -7.36,7.149C-7.214,6.766 -7.047,6.391 -6.864,6.031C-4.009,0.299 2.843,-2.43 8.987,-0.082C15.211,2.295 18.497,9.035 16.657,15.275C16.568,15.589 16.465,15.897 16.347,16.208C13.868,22.695 6.533,25.936 0,23.439M18.721,16.707C21.419,9.07 17.509,0.618 9.84,-2.313C2.263,-5.207 -6.182,-1.635 -9.356,5.683C-9.44,5.885 -9.525,6.087 -9.604,6.292C-10.615,8.939 -10.819,11.689 -10.346,14.291L-15.754,20.824L-6.998,21.325C-5.402,23.206 -3.321,24.727 -0.853,25.67C6.936,28.646 15.638,24.793 18.591,17.065C18.636,16.946 18.682,16.828 18.721,16.707" style="fill:white;"/>
                </g>
                <g transform="matrix(1,0,0,1,449.799,266.173)">
                    <path d="M0,10.429C-0.285,10.124 -1.663,8.644 -1.937,8.41C-2.209,8.17 -2.42,8.03 -2.781,8.284C-3.144,8.539 -4.105,9.057 -4.39,9.205C-4.682,9.359 -4.89,9.31 -5.174,9.004C-5.452,8.701 -6.431,7.919 -7.302,6.24C-7.979,4.945 -8.25,3.555 -8.317,3.137C-8.384,2.718 -8.136,2.601 -7.898,2.495C-7.68,2.397 -7.401,2.224 -7.147,2.094C-7.078,2.052 -7.019,2.014 -6.959,1.977C-6.832,1.881 -6.728,1.785 -6.585,1.651C-6.378,1.465 -6.361,1.244 -6.382,1.04C-6.401,0.835 -6.449,-1.119 -6.478,-1.917C-6.499,-2.711 -6.835,-2.703 -7.039,-2.781C-7.237,-2.857 -7.456,-2.978 -7.687,-3.066C-7.918,-3.155 -8.327,-3.213 -8.774,-2.991C-9.223,-2.768 -10.431,-2.277 -11.077,-0.588C-11.228,-0.192 -11.307,0.232 -11.345,0.649C-11.457,1.99 -11.085,3.274 -11.019,3.496C-10.933,3.786 -10.082,8.21 -7.098,10.932C-4.103,13.642 -3.929,13.186 -3.271,13.369C-2.618,13.558 -0.91,13.325 -0.319,12.629C0.276,11.942 0.538,11.255 0.508,11.077C0.476,10.906 0.276,10.732 0,10.429" style="fill:white;"/>
                </g>
            </g>
            <g>
                <g transform="matrix(1,0,0,1,69.631,125.504)">
                    <path d="M0,42.737C-11.801,42.737 -21.368,33.17 -21.368,21.369C-21.368,9.567 -11.801,0 0,0C11.802,0 21.369,9.567 21.369,21.369C21.369,33.17 11.802,42.737 0,42.737" style="fill:rgb(232,80,91);fill-rule:nonzero;"/>
                </g>
                <g transform="matrix(1,0,0,1,58.2462,139.719)">
                    <path d="M0,14.307C2.067,15.633 4.523,16.406 7.161,16.406C15.834,16.406 20.734,9.08 20.439,2.509C21.352,1.851 22.144,1.029 22.77,0.091C21.932,0.462 21.031,0.714 20.087,0.827C21.051,0.249 21.792,-0.666 22.141,-1.758C21.238,-1.223 20.238,-0.834 19.175,-0.624C18.322,-1.532 17.108,-2.099 15.764,-2.099C12.749,-2.099 10.533,0.715 11.214,3.637C7.331,3.442 3.889,1.582 1.585,-1.244C0.361,0.856 0.951,3.603 3.031,4.993C2.265,4.969 1.544,4.758 0.915,4.409C0.864,6.573 2.415,8.597 4.661,9.049C4.004,9.228 3.284,9.268 2.553,9.128C3.146,10.985 4.872,12.334 6.916,12.373C4.952,13.912 2.478,14.6 0,14.307" style="fill:white;fill-rule:nonzero;"/>
                </g>
            </g>
            <g>
                <g transform="matrix(0.972777,-0.231742,-0.231742,-0.972777,116.096,404.662)">
                    <path d="M-8.529,-1.002C-28.855,-1.001 -45.332,15.476 -45.333,35.802C-45.332,56.128 -28.855,72.606 -8.529,72.606C11.797,72.604 28.274,56.128 28.274,35.802C28.275,15.476 11.798,-1.001 -8.529,-1.002" style="fill:rgb(69,90,100);fill-rule:nonzero;"/>
                </g>
                <g transform="matrix(1,0,0,1,94.8268,391.442)">
                    <path d="M0,-39.26C-5.332,-37.99 -5.995,-37.808 -8.066,-37.214C-10.132,-36.62 -11.48,-35.948 -12.613,-35.166C-13.785,-34.357 -14.719,-33.425 -15.551,-32.074C-16.382,-30.723 -16.792,-29.467 -16.986,-28.057C-17.174,-26.694 -17.167,-25.188 -16.764,-23.075C-16.36,-20.958 -16.224,-20.285 -14.954,-14.953C-13.684,-9.622 -13.502,-8.959 -12.907,-6.888C-12.315,-4.822 -11.643,-3.474 -10.86,-2.341C-10.051,-1.169 -9.119,-0.235 -7.768,0.597C-6.417,1.428 -5.162,1.839 -3.751,2.033C-2.387,2.22 -0.881,2.213 1.231,1.81C3.348,1.407 4.021,1.27 9.353,0C14.684,-1.27 15.347,-1.451 17.418,-2.046C19.484,-2.639 20.832,-3.311 21.965,-4.094C23.137,-4.903 24.072,-5.835 24.903,-7.186C25.734,-8.537 26.145,-9.792 26.339,-11.202C26.526,-12.567 26.519,-14.073 26.116,-16.185C25.713,-18.301 25.576,-18.975 24.306,-24.306C23.036,-29.638 22.854,-30.301 22.26,-32.372C21.667,-34.439 20.995,-35.786 20.212,-36.919C19.403,-38.09 18.471,-39.026 17.12,-39.857C15.769,-40.688 14.514,-41.099 13.104,-41.292C11.739,-41.48 10.233,-41.473 8.121,-41.071C6.004,-40.666 5.331,-40.531 0,-39.26M0.842,-35.724C6.084,-36.972 6.709,-37.1 8.802,-37.498C10.736,-37.867 11.852,-37.795 12.608,-37.691C13.609,-37.553 14.364,-37.283 15.215,-36.76C16.065,-36.237 16.646,-35.685 17.221,-34.854C17.654,-34.225 18.221,-33.262 18.765,-31.368C19.353,-29.322 19.521,-28.705 20.77,-23.464C22.018,-18.223 22.146,-17.597 22.544,-15.504C22.913,-13.57 22.841,-12.454 22.737,-11.698C22.599,-10.697 22.33,-9.943 21.806,-9.091C21.283,-8.24 20.73,-7.659 19.899,-7.085C19.271,-6.652 18.308,-6.084 16.415,-5.54C14.368,-4.953 13.752,-4.786 8.51,-3.537C3.268,-2.288 2.643,-2.16 0.551,-1.761C-1.384,-1.393 -2.5,-1.465 -3.255,-1.57C-4.257,-1.707 -5.012,-1.977 -5.863,-2.5C-6.713,-3.024 -7.294,-3.575 -7.869,-4.407C-8.302,-5.035 -8.87,-5.998 -9.413,-7.891C-10,-9.939 -10.168,-10.555 -11.417,-15.796C-12.666,-21.037 -12.793,-21.663 -13.192,-23.755C-13.561,-25.691 -13.488,-26.806 -13.385,-27.562C-13.247,-28.563 -12.977,-29.319 -12.454,-30.168C-11.931,-31.02 -11.378,-31.601 -10.546,-32.175C-9.919,-32.609 -8.956,-33.176 -7.062,-33.719C-5.016,-34.307 -4.399,-34.475 0.842,-35.724" style="fill:white;fill-rule:nonzero;"/>
                </g>
                <g transform="matrix(1,0,0,1,101.062,365.268)">
                    <path d="M0,13.088C-3.614,13.948 -7.241,11.716 -8.102,8.103C-8.963,4.489 -6.731,0.861 -3.117,0.001C0.496,-0.86 4.124,1.371 4.984,4.985C5.845,8.599 3.614,12.227 0,13.088M-3.96,-3.536C-9.527,-2.21 -12.965,3.378 -11.639,8.945C-10.313,14.513 -4.724,17.95 0.843,16.624C6.41,15.298 9.848,9.71 8.521,4.143C7.195,-1.425 1.607,-4.862 -3.96,-3.536" style="fill:white;fill-rule:nonzero;"/>
                </g>
                <g transform="matrix(-0.231686,-0.972791,-0.972791,0.231686,106.394,356.676)">
                    <path d="M-2.355,-2.983C-3.692,-2.983 -4.777,-1.898 -4.777,-0.562C-4.777,0.776 -3.692,1.861 -2.355,1.86C-1.018,1.86 0.066,0.776 0.067,-0.561C0.066,-1.898 -1.018,-2.983 -2.355,-2.983" style="fill:white;fill-rule:nonzero;"/>
                </g>
            </g>
            <g>
                <g transform="matrix(1,0,0,1,386.807,340.895)">
                    <path d="M0,34.327C-9.479,34.327 -17.164,26.642 -17.164,17.163C-17.164,7.684 -9.479,0 0,0C9.479,0 17.163,7.684 17.163,17.163C17.163,26.642 9.479,34.327 0,34.327" style="fill:rgb(69,90,100);fill-rule:nonzero;"/>
                </g>
                <g transform="matrix(1,0,0,1,384.191,347.684)">
                    <path d="M0,20.749L4.179,20.749L4.179,10.286L7.094,10.286L7.404,6.783L4.179,6.783L4.179,4.788C4.179,3.962 4.345,3.636 5.143,3.636L7.404,3.636L7.404,0L4.511,0C1.402,0 0,1.369 0,3.99L0,6.783L-2.173,6.783L-2.173,10.33L0,10.33L0,20.749Z" style="fill:white;fill-rule:nonzero;"/>
                </g>
            </g>
        </g>
        <g id="Device">
            <g transform="matrix(1,0,0,1,328.27,64.2092)">
                <path d="M0,405.837L-137.887,405.755C-154.47,405.747 -167.908,392.298 -167.905,375.714L-167.837,30.029C-167.834,13.436 -154.377,-0.011 -137.784,-0.002L0.104,0.079C16.687,0.089 30.125,13.538 30.121,30.121L30.054,375.808C30.051,392.4 16.594,405.848 0,405.837" style="fill:rgb(38,50,56);fill-rule:nonzero;"/>
            </g>
            <g transform="matrix(1,0,0,1,328.227,455.921)">
                <path d="M0,-379.406L-26.733,-379.422C-30.318,-379.424 -33.227,-376.386 -33.227,-372.639L-33.229,-367.79C-33.228,-364.042 -36.136,-361.005 -39.721,-361.008L-91.831,-361.038C-95.416,-361.04 -98.322,-364.08 -98.321,-367.828L-98.32,-372.677C-98.319,-376.426 -101.226,-379.466 -104.811,-379.468L-114.213,-379.473L-137.612,-379.487C-149.232,-379.493 -158.657,-370.076 -158.659,-358.455L-158.725,-21.041C-158.728,-9.426 -149.316,-0.008 -137.702,0L-0.091,0.08C11.529,0.087 20.954,-9.33 20.957,-20.951L21.023,-358.366C21.025,-369.981 11.614,-379.399 0,-379.406" style="fill:white;fill-rule:nonzero;"/>
            </g>
            <g>
                <g transform="matrix(-0.00824077,-0.999966,-0.999966,0.00824077,322.346,96.2259)">
                    <path d="M-7.766,-7.831C-7.856,-7.83 -7.93,-4.352 -7.93,-0.064C-7.93,4.225 -7.857,7.702 -7.766,7.702C-7.676,7.701 -7.602,4.225 -7.601,-0.064C-7.602,-4.353 -7.675,-7.831 -7.766,-7.831" style="fill:rgb(38,50,56);fill-rule:nonzero;"/>
                </g>
                <g transform="matrix(-0.0082413,-0.999966,-0.999966,0.0082413,322.38,100.2)">
                    <path d="M-7.766,-7.83C-7.856,-7.83 -7.929,-4.352 -7.93,-0.064C-7.929,4.226 -7.857,7.702 -7.766,7.702C-7.675,7.702 -7.602,4.226 -7.601,-0.064C-7.602,-4.352 -7.674,-7.83 -7.766,-7.83" style="fill:rgb(38,50,56);fill-rule:nonzero;"/>
                </g>
                <g transform="matrix(-0.0082413,-0.999966,-0.999966,0.0082413,322.412,104.174)">
                    <path d="M-7.765,-7.83C-7.855,-7.831 -7.928,-4.353 -7.929,-0.064C-7.93,4.225 -7.856,7.702 -7.765,7.701C-7.675,7.702 -7.602,4.226 -7.601,-0.064C-7.601,-4.352 -7.675,-7.83 -7.765,-7.83" style="fill:rgb(38,50,56);fill-rule:nonzero;"/>
                </g>
                <g transform="matrix(1,0,0,1,184.019,99.3933)">
                    <path d="M0,16.357C0.008,16.349 0.147,16.34 0.407,16.33C0.728,16.319 1.1,16.307 1.539,16.292C2.607,16.267 4.004,16.233 5.718,16.193L5.603,16.31C5.588,15.384 5.571,14.372 5.554,13.28C5.56,12.716 5.505,12.186 5.56,11.535C5.673,10.886 6.251,10.314 6.962,10.247C7.636,10.233 8.229,10.203 8.959,10.237C9.712,10.329 10.353,11.053 10.33,11.851C10.346,13.264 10.363,14.74 10.38,16.271L10.186,16.08C11.879,16.063 13.642,16.045 15.458,16.027L15.258,16.231C15.239,14.107 15.219,11.911 15.199,9.661C15.194,9.1 15.19,8.543 15.185,7.988C15.183,7.473 14.869,7.128 14.444,6.743C13.664,5.974 12.895,5.216 12.139,4.471C11.384,3.726 10.642,2.994 9.916,2.277C9.553,1.919 9.193,1.564 8.838,1.212C8.468,0.856 8.177,0.487 7.748,0.399C7.332,0.287 6.873,0.375 6.538,0.63C6.219,0.899 5.878,1.282 5.557,1.595C4.908,2.25 4.276,2.886 3.665,3.503C2.475,4.739 1.236,5.868 0.334,6.936C-0.045,7.525 0.097,8.246 0.069,8.903C0.068,9.556 0.066,10.176 0.065,10.761C0.059,11.899 0.052,12.898 0.047,13.753C0.038,14.518 0.031,15.149 0.025,15.667C0.018,16.109 0.01,16.347 0,16.357C-0.01,16.367 -0.021,16.149 -0.036,15.723C-0.05,15.213 -0.068,14.591 -0.089,13.839C-0.108,12.977 -0.131,11.97 -0.157,10.822C-0.168,10.226 -0.18,9.594 -0.192,8.928C-0.197,8.591 -0.203,8.245 -0.208,7.892C-0.211,7.517 -0.115,7.131 0.083,6.788C1.058,5.593 2.222,4.535 3.421,3.263C4.028,2.642 4.654,2 5.298,1.34C5.636,1.008 5.913,0.678 6.315,0.332C6.737,0.008 7.316,-0.109 7.844,0.031C8.405,0.154 8.77,0.614 9.11,0.936C9.467,1.286 9.828,1.639 10.192,1.996C10.921,2.711 11.666,3.44 12.422,4.183C13.18,4.926 13.95,5.682 14.732,6.45C14.917,6.646 15.14,6.812 15.321,7.087C15.491,7.35 15.589,7.661 15.597,7.977C15.602,8.533 15.607,9.094 15.612,9.658C15.629,11.908 15.646,14.104 15.662,16.227L15.664,16.43L15.461,16.431C13.645,16.443 11.882,16.454 10.189,16.465L9.996,16.466L9.995,16.274C9.987,14.743 9.979,13.267 9.972,11.854C9.994,11.217 9.499,10.655 8.907,10.574C8.3,10.542 7.585,10.563 6.995,10.568C6.428,10.615 5.955,11.07 5.858,11.593C5.807,12.123 5.846,12.741 5.835,13.277C5.835,14.37 5.836,15.382 5.836,16.308L5.836,16.427L5.72,16.426C3.977,16.414 2.557,16.404 1.471,16.397C1.042,16.389 0.678,16.383 0.365,16.378C0.117,16.371 -0.007,16.364 0,16.357" style="fill:rgb(38,50,56);fill-rule:nonzero;"/>
                </g>
                <g transform="matrix(0.00470132,-0.999989,-0.999989,-0.00470132,251.292,432.403)">
                    <path d="M-2.873,-2.857C-4.482,-2.858 -5.786,-1.572 -5.786,0.013C-5.786,1.599 -4.482,2.885 -2.873,2.886C-1.264,2.887 0.042,1.602 0.041,0.016C0.041,-1.57 -1.263,-2.855 -2.873,-2.857" style="fill:rgb(38,50,56);fill-rule:nonzero;"/>
                </g>
                <g transform="matrix(0.0045272,-0.99999,-0.99999,-0.0045272,260.188,432.445)">
                    <path d="M-2.872,-2.859C-4.481,-2.858 -5.785,-1.573 -5.786,0.012C-5.787,1.598 -4.482,2.884 -2.872,2.885C-1.263,2.886 0.041,1.6 0.042,0.014C0.042,-1.572 -1.263,-2.857 -2.872,-2.859" style="fill:rgb(38,50,56);fill-rule:nonzero;"/>
                </g>
                <g transform="matrix(0.00470132,-0.999989,-0.999989,-0.00470132,269.086,432.487)">
                    <path d="M-2.871,-2.859C-4.479,-2.859 -5.785,-1.574 -5.784,0.012C-5.786,1.598 -4.481,2.884 -2.871,2.885C-1.262,2.885 0.042,1.6 0.043,0.014C0.043,-1.572 -1.262,-2.858 -2.871,-2.859" style="fill:rgb(38,50,56);fill-rule:nonzero;"/>
                </g>
            </g>
            <g>
                <g transform="matrix(1,0,0,1,274.979,377.406)">
                    <path d="M0,0.001C0,0.037 -0.514,0.071 -1.444,0.103C-2.473,0.124 -3.796,0.151 -5.385,0.185C-8.711,0.232 -13.307,0.261 -18.383,0.261C-23.46,0.261 -28.057,0.232 -31.384,0.185C-32.972,0.151 -34.295,0.124 -35.323,0.103C-36.253,0.071 -36.768,0.037 -36.768,0.001C-36.768,-0.035 -36.253,-0.069 -35.323,-0.101C-34.295,-0.122 -32.972,-0.15 -31.384,-0.184C-28.057,-0.23 -23.46,-0.26 -18.383,-0.26C-13.307,-0.26 -8.711,-0.23 -5.385,-0.184C-3.796,-0.15 -2.473,-0.122 -1.444,-0.101C-0.514,-0.069 0,-0.035 0,0.001" style="fill:rgb(69,90,100);fill-rule:nonzero;"/>
                </g>
                <g transform="matrix(0,-1,-1,0,285.491,341.172)">
                    <path d="M-47.28,-47.281C-47.425,-47.281 -47.541,-26.111 -47.541,-0.004C-47.541,26.114 -47.425,47.28 -47.28,47.28C-47.136,47.28 -47.02,26.114 -47.02,-0.004C-47.02,-26.111 -47.136,-47.281 -47.28,-47.281" style="fill:rgb(69,90,100);fill-rule:nonzero;"/>
                </g>
                <g transform="matrix(0,-1,-1,0,270.716,364.457)">
                    <path d="M-32.505,-32.506C-32.65,-32.506 -32.766,-17.951 -32.766,-0.002C-32.766,17.953 -32.65,32.505 -32.505,32.505C-32.361,32.505 -32.245,17.953 -32.245,-0.002C-32.245,-17.951 -32.361,-32.506 -32.505,-32.506" style="fill:rgb(69,90,100);fill-rule:nonzero;"/>
                </g>
                <g transform="matrix(1,0,0,1,331.703,408.247)">
                    <path d="M0,1.965L0.092,2.057L2.679,4.652L2.69,-3.045L-2.525,-3.054L-2.537,4.496L0,1.965ZM2.938,5.278L0,2.332L-2.798,5.121L-2.785,-3.313L2.95,-3.305L2.938,5.278Z" style="fill:rgb(38,50,56);fill-rule:nonzero;"/>
                </g>
                <g transform="matrix(1,0,0,1,253.985,412.219)">
                    <path d="M0,-5.406C-1.479,-5.394 -2.673,-4.181 -2.662,-2.702C-2.649,-1.223 -1.437,-0.029 0.043,-0.041C0.423,-0.045 0.845,-0.177 1.335,-0.448L1.378,-0.472L2.142,-0.132L1.969,-0.883L2.003,-0.921C2.46,-1.423 2.709,-2.071 2.703,-2.745C2.691,-4.224 1.479,-5.418 0,-5.406M2.424,0.21L1.387,-0.253C0.886,0.019 0.446,0.153 0.044,0.156C-1.544,0.169 -2.846,-1.113 -2.858,-2.7C-2.871,-4.288 -1.59,-5.591 -0.002,-5.603C1.586,-5.616 2.888,-4.334 2.9,-2.747C2.906,-2.04 2.652,-1.36 2.184,-0.827L2.424,0.21Z" style="fill:rgb(38,50,56);fill-rule:nonzero;"/>
                </g>
                <g transform="matrix(1,0,0,1,260.162,411.747)">
                    <path d="M0,-4.501L1.897,-2.759L2.91,-0.289L4.608,-4.538L0,-4.501ZM2.912,0.236L1.724,-2.663L-0.505,-4.694L4.9,-4.737L2.912,0.236Z" style="fill:rgb(38,50,56);fill-rule:nonzero;"/>
                </g>
                <g transform="matrix(-0.541781,-0.84052,-0.84052,0.541781,265.179,408.681)">
                    <rect x="1.315" y="-0.716" width="0.211" height="3.515" style="fill:rgb(38,50,56);"/>
                </g>
                <g transform="matrix(1,0,0,1,247.903,410.769)">
                    <path d="M0,-3.11C-0.155,-3.882 -0.919,-4.484 -1.706,-4.453C-2.485,-4.422 -3.193,-3.773 -3.296,-3.001C-3.412,-3.771 -4.13,-4.409 -4.91,-4.427C-5.697,-4.446 -6.452,-3.832 -6.594,-3.057C-6.698,-2.494 -6.502,-1.908 -6.184,-1.431C-5.864,-0.955 -5.43,-0.569 -5,-0.189C-4.398,0.343 -3.842,0.843 -3.239,1.374C-2.646,0.833 -2.142,0.325 -1.548,-0.217C-1.125,-0.603 -0.696,-0.996 -0.385,-1.477C-0.073,-1.959 0.113,-2.548 0,-3.11" style="fill:rgb(232,80,91);fill-rule:nonzero;"/>
                </g>
                <g transform="matrix(1,0,0,1,340.662,367.41)">
                    <path d="M0,53.578C0,53.578 -0.012,53.255 -0.018,52.638C-0.021,52.011 -0.027,51.099 -0.036,49.901C-0.045,47.488 -0.06,43.939 -0.078,39.343C-0.1,30.152 -0.132,16.781 -0.172,0.009L0,0.181C-38.477,0.202 -95.909,0.233 -159.916,0.269L-159.926,0.269L-159.666,0.009C-159.669,18.626 -159.672,36.684 -159.675,53.578L-159.926,53.326C-113.891,53.373 -73.944,53.414 -45.493,53.443C-31.257,53.474 -19.899,53.497 -12.087,53.514C-8.187,53.528 -5.174,53.539 -3.123,53.546C-2.107,53.554 -1.333,53.558 -0.8,53.562C-0.275,53.567 0,53.578 0,53.578C0,53.578 -0.254,53.589 -0.768,53.594C-1.295,53.598 -2.06,53.602 -3.062,53.61C-5.1,53.617 -8.095,53.628 -11.972,53.642C-19.771,53.659 -31.108,53.683 -45.32,53.713C-73.814,53.742 -113.821,53.783 -159.926,53.83L-160.179,53.83L-160.179,53.578C-160.181,36.684 -160.184,18.626 -160.187,0.009L-160.187,-0.252L-159.916,-0.252C-95.909,-0.216 -38.477,-0.185 0,-0.163L0.172,-0.163L0.172,0.009C0.132,16.825 0.1,30.231 0.078,39.446C0.06,44.026 0.045,47.561 0.035,49.966C0.027,51.149 0.021,52.052 0.018,52.672C0.012,53.277 0,53.578 0,53.578" style="fill:rgb(38,50,56);fill-rule:nonzero;"/>
                </g>
                <g transform="matrix(-0.00567531,0.999984,0.999984,0.00567531,226.891,416.552)">
                    <rect x="-39.958" y="-39.732" width="35.416" height="44.3" style="fill:rgb(235,235,235);"/>
                </g>
                <g transform="matrix(1,0,0,1,231.685,411.792)">
                    <path d="M0,-35.172C-0.005,-35.167 -0.08,-35.163 -0.222,-35.159C-0.385,-35.157 -0.59,-35.153 -0.85,-35.15C-1.425,-35.147 -2.232,-35.142 -3.269,-35.136C-5.399,-35.133 -8.47,-35.13 -12.352,-35.125C-20.143,-35.142 -31.184,-35.164 -44.3,-35.191L-44.066,-35.422C-44.118,-24.877 -44.177,-12.796 -44.24,-0.01C-44.186,0.053 -44.726,-0.502 -44.491,-0.268L-44.407,-0.268L-44.311,-0.267L-43.735,-0.264L-42.968,-0.259L-41.441,-0.25C-40.425,-0.244 -39.415,-0.238 -38.409,-0.233C-36.397,-0.221 -34.407,-0.208 -32.44,-0.196C-28.507,-0.171 -24.669,-0.147 -20.947,-0.122C-13.506,-0.068 -6.532,-0.018 -0.2,0.027L-0.418,0.243C-0.311,-10.392 -0.222,-19.214 -0.16,-25.408C-0.119,-28.488 -0.086,-30.914 -0.063,-32.599C-0.048,-33.412 -0.036,-34.046 -0.028,-34.503C-0.017,-34.937 0,-35.172 0,-35.172C0,-35.172 0.015,-34.968 0.02,-34.549C0.023,-34.102 0.028,-33.482 0.034,-32.686C0.038,-31.012 0.043,-28.603 0.049,-25.543C0.041,-19.316 0.029,-10.446 0.015,0.245L0.015,0.462L-0.203,0.461C-6.534,0.434 -13.508,0.406 -20.95,0.375C-24.671,0.356 -28.51,0.338 -32.443,0.318C-34.41,0.307 -36.401,0.298 -38.412,0.287C-39.417,0.281 -40.429,0.275 -41.444,0.27L-42.971,0.262L-43.738,0.257L-44.122,0.255L-44.313,0.254L-44.41,0.254L-44.458,0.253L-44.494,0.253C-44.266,0.486 -44.819,-0.064 -44.761,-0.013C-44.678,-12.799 -44.6,-24.88 -44.532,-35.425L-44.531,-35.658L-44.298,-35.656C-31.12,-35.533 -20.027,-35.431 -12.199,-35.358C-8.34,-35.309 -5.287,-35.271 -3.169,-35.244C-2.153,-35.227 -1.361,-35.213 -0.797,-35.203C-0.548,-35.196 -0.351,-35.191 -0.195,-35.187C-0.062,-35.181 0.004,-35.176 0,-35.172" style="fill:rgb(38,50,56);fill-rule:nonzero;"/>
                </g>
                <g transform="matrix(0.999984,0.00568131,0.00568131,-0.999984,188.638,409.446)">
                    <rect x="0.088" y="-0.117" width="41.187" height="30.957" style="fill:rgb(224,224,224);"/>
                </g>
                <g transform="matrix(1,0,0,1,188.725,390.638)">
                    <path d="M0,18.926L14.495,-0.234L23.337,11.855L29.418,5.453L41.187,19.16L0,18.926Z" style="fill:rgb(245,245,245);fill-rule:nonzero;"/>
                </g>
                <g transform="matrix(0.0057045,-0.999984,-0.999984,-0.0057045,212.721,384.857)">
                    <path d="M-3.243,-3.225C-5.034,-3.225 -6.485,-1.772 -6.487,0.019C-6.486,1.81 -5.034,3.261 -3.243,3.262C-1.452,3.262 -0.001,1.81 0.001,0.019C-0,-1.772 -1.452,-3.224 -3.243,-3.225" style="fill:rgb(245,245,245);fill-rule:nonzero;"/>
                </g>
            </g>
            <g>
                <g transform="matrix(1,0,0,1,262.087,146.872)">
                    <path d="M0,0C0,0.018 -0.163,0.036 -0.474,0.052C-0.845,0.066 -1.292,0.082 -1.83,0.101C-3.091,0.122 -4.775,0.15 -6.818,0.184C-11.032,0.231 -16.852,0.26 -23.279,0.26C-29.709,0.26 -35.529,0.231 -39.742,0.184C-41.785,0.15 -43.469,0.122 -44.731,0.101C-45.269,0.082 -45.716,0.066 -46.087,0.052C-46.397,0.036 -46.56,0.018 -46.56,0C-46.56,-0.018 -46.397,-0.036 -46.087,-0.053C-45.716,-0.066 -45.269,-0.082 -44.731,-0.102C-43.47,-0.123 -41.785,-0.15 -39.742,-0.184C-35.529,-0.231 -29.709,-0.26 -23.279,-0.26C-16.852,-0.26 -11.032,-0.231 -6.818,-0.184C-4.775,-0.15 -3.091,-0.123 -1.83,-0.102C-1.292,-0.082 -0.844,-0.066 -0.474,-0.053C-0.163,-0.036 0,-0.018 0,0" style="fill:rgb(38,50,56);fill-rule:nonzero;"/>
                </g>
                <g transform="matrix(1,0,0,1,323.168,334.808)">
                    <path d="M0,2.921L0.137,3.057L3.98,6.913L3.998,-4.525L-3.754,-4.537L-3.771,6.682L0,2.921ZM4.364,7.845L-0.001,3.466L-4.158,7.611L-4.139,-4.924L4.384,-4.91L4.364,7.845Z" style="fill:rgb(38,50,56);fill-rule:nonzero;"/>
                </g>
                <g transform="matrix(1,0,0,1,211.903,340.921)">
                    <path d="M0,-10.64C-2.912,-10.618 -5.262,-8.23 -5.238,-5.319C-5.215,-2.407 -2.827,-0.058 0.084,-0.08C0.832,-0.087 1.664,-0.35 2.627,-0.882L2.712,-0.93L4.216,-0.258L3.875,-1.737L3.944,-1.812C4.843,-2.8 5.333,-4.077 5.322,-5.403C5.299,-8.315 2.911,-10.663 0,-10.64M4.771,0.414L2.73,-0.496C1.744,0.038 0.878,0.3 0.088,0.307C-3.038,0.333 -5.601,-2.19 -5.626,-5.315C-5.651,-8.44 -3.129,-11.003 -0.003,-11.029C3.122,-11.054 5.685,-8.532 5.71,-5.407C5.721,-4.014 5.221,-2.677 4.299,-1.626L4.771,0.414Z" style="fill:rgb(38,50,56);fill-rule:nonzero;"/>
                </g>
                <g transform="matrix(1,0,0,1,224.062,339.992)">
                    <path d="M0,-8.859L3.736,-5.43L5.728,-0.568L9.071,-8.931L0,-8.859ZM5.732,0.466L3.394,-5.242L-0.993,-9.239L9.646,-9.325L5.732,0.466Z" style="fill:rgb(38,50,56);fill-rule:nonzero;"/>
                </g>
                <g transform="matrix(-0.545169,-0.838326,-0.838326,0.545169,233.942,333.942)">
                    <rect x="2.601" y="-1.411" width="0.389" height="6.921" style="fill:rgb(38,50,56);"/>
                </g>
                <g transform="matrix(1,0,0,1,199.933,338.07)">
                    <path d="M0,-6.124C-0.305,-7.645 -1.809,-8.828 -3.358,-8.767C-4.893,-8.706 -6.286,-7.429 -6.489,-5.907C-6.716,-7.425 -8.13,-8.68 -9.666,-8.716C-11.215,-8.752 -12.7,-7.545 -12.98,-6.02C-13.185,-4.91 -12.8,-3.756 -12.172,-2.818C-11.544,-1.88 -10.688,-1.122 -9.842,-0.374C-8.657,0.673 -7.562,1.657 -6.377,2.704C-5.209,1.639 -4.215,0.637 -3.047,-0.429C-2.213,-1.189 -1.37,-1.962 -0.757,-2.91C-0.145,-3.858 0.222,-5.018 0,-6.124" style="fill:rgb(232,80,91);fill-rule:nonzero;"/>
                </g>
                <g transform="matrix(0,-1,-1,0,198.963,139.656)">
                    <path d="M-7.217,-7.217C-11.202,-7.217 -14.433,-3.986 -14.433,-0C-14.433,3.986 -11.202,7.217 -7.217,7.217C-3.232,7.217 -0,3.986 -0,-0C-0,-3.986 -3.232,-7.217 -7.217,-7.217" style="fill:rgb(235,235,235);fill-rule:nonzero;"/>
                </g>
                <g transform="matrix(0,-1,-1,0,257.225,233.672)">
                    <path d="M-67.583,-67.582C-67.727,-67.582 -67.843,-37.321 -67.843,-0.003C-67.843,37.329 -67.727,67.583 -67.583,67.583C-67.438,67.583 -67.322,37.329 -67.322,-0.003C-67.322,-37.321 -67.438,-67.582 -67.583,-67.582" style="fill:rgb(69,90,100);fill-rule:nonzero;"/>
                </g>
                <g transform="matrix(0,-1,-1,0,257.225,222.417)">
                    <path d="M-67.583,-67.583C-67.727,-67.583 -67.843,-37.322 -67.843,-0.004C-67.843,37.329 -67.727,67.583 -67.583,67.583C-67.438,67.583 -67.322,37.329 -67.322,-0.004C-67.322,-37.322 -67.438,-67.583 -67.583,-67.583" style="fill:rgb(69,90,100);fill-rule:nonzero;"/>
                </g>
                <g transform="matrix(0,-1,-1,0,226.428,275.875)">
                    <path d="M-36.786,-36.786C-36.93,-36.786 -37.047,-20.316 -37.047,-0.002C-37.047,20.319 -36.93,36.786 -36.786,36.786C-36.642,36.786 -36.524,20.319 -36.524,-0.002C-36.524,-20.316 -36.642,-36.786 -36.786,-36.786" style="fill:rgb(69,90,100);fill-rule:nonzero;"/>
                </g>
                <g transform="matrix(1,-0.000293882,-0.000293882,-1,181.722,259.004)">
                    <rect x="-0.014" y="0.023" width="159.927" height="97.803" style="fill:rgb(224,224,224);"/>
                </g>
                <g transform="matrix(1,0,0,1,196.457,197.638)">
                    <path d="M0,61.337L45.828,0L74.239,38.358L93.495,17.842L131.26,61.299L0,61.337Z" style="fill:rgb(245,245,245);fill-rule:nonzero;"/>
                </g>
                <g transform="matrix(-0.000290262,-1,-1,0.000290262,272.396,179.781)">
                    <path d="M-10.335,-10.339C-16.043,-10.338 -20.67,-5.712 -20.67,-0.004C-20.67,5.705 -16.043,10.332 -10.335,10.332C-4.627,10.331 0.001,5.705 0,-0.003C-0.001,-5.712 -4.627,-10.339 -10.335,-10.339" style="fill:rgb(245,245,245);fill-rule:nonzero;"/>
                </g>
                <g transform="matrix(1,0,0,1,341.19,128.566)">
                    <path d="M0,221.287C-0.002,219.195 -0.097,130.843 -0.236,0.048L0,0.284C-48.228,0.291 -102.592,0.299 -159.908,0.308L-159.926,0.308L-159.666,0.048C-159.684,82.786 -159.701,159.358 -159.715,221.287L-159.926,221.076C-62.944,221.204 -1.745,221.285 0,221.287C-1.744,221.29 -62.944,221.371 -159.926,221.499L-160.138,221.5L-160.138,221.287C-160.152,159.358 -160.169,82.786 -160.187,0.048L-160.187,-0.213L-159.908,-0.213C-102.592,-0.204 -48.228,-0.196 0,-0.189L0.236,-0.189L0.236,0.048C0.188,65.509 0.147,120.843 0.119,159.819C0.092,179.28 0.07,194.655 0.056,205.172C0.044,210.416 0.034,214.448 0.027,217.176C0.021,218.528 0.017,219.557 0.014,220.255C0.009,220.943 0,221.287 0,221.287" style="fill:rgb(38,50,56);fill-rule:nonzero;"/>
                </g>
            </g>
        </g>
        <g id="Megaphone">
            <g transform="matrix(1,0,0,1,266.044,400.613)">
                <path d="M0,-23.316L3.537,-35.204C4.155,-37.782 4.975,-40.822 6.078,-44.293C7.069,-47.412 9.613,-50.688 11.934,-53.048C15.545,-56.721 17.263,-56.746 19.69,-58.695C19.911,-58.837 20.158,-59.04 20.366,-59.152C20.869,-59.424 21.237,-59.785 21.547,-60.173C23.639,-62.436 21.63,-65.938 17.381,-65.605C14.183,-65.354 8.967,-64.439 0.485,-55.689C0.38,-55.556 0.269,-55.445 0.164,-55.309C-4.287,-49.523 -8.468,-66.041 -9.222,-72.189C-9.711,-76.178 -14.026,-78.63 -17.93,-77.187L-38.591,-67.523C-40.297,-68.124 -42.323,-68.023 -44.623,-67.319C-47.665,-66.194 -49.354,-63.066 -48.559,-60.031L-40.179,-26.579L-64.791,55.314L-11.743,55.314L0,-23.316Z" style="fill:rgb(255,190,157);fill-rule:nonzero;"/>
            </g>
            <g transform="matrix(1,0,0,1,306.795,356.755)">
                <path d="M0,-54.671L-16.398,-22.538L-24.597,-24.816L-65.812,8.71C-69.32,11.563 -74.461,11.106 -77.41,7.68L-93.102,-10.556C-93.102,-10.556 -61.46,-24.186 -55.608,-35.469C-49.757,-46.752 -56.519,-49.311 -56.519,-49.311L-41.627,-66.234L0,-54.671Z" style="fill:rgb(232,80,91);fill-rule:nonzero;"/>
            </g>
            <g transform="matrix(1,0,0,1,285.527,168.91)">
                <path d="M0,67.533C0,67.533 -24.004,62.224 -57.783,29.741C-91.561,-2.741 -107.434,-45.876 -111.568,-45.666C-115.703,-45.456 -133.756,-53.838 -168.092,20.854C-202.429,95.545 -188.903,112.889 -182.071,112.75C-175.238,112.61 -128.844,99.681 -99.866,102.975C-70.889,106.269 -33.641,121.371 -33.641,121.371L0,67.533Z" style="fill:rgb(232,80,91);fill-rule:nonzero;"/>
            </g>
            <g transform="matrix(1,0,0,1,336.52,258.434)">
                <path d="M0,18.721L-8.189,34.291L-11.858,41.266C-16.889,50.833 -28.528,54.787 -38.347,50.264L-89.795,32.338L-59.832,-36.066L-8.43,-8.673C1.437,-3.414 5.204,8.825 0,18.721" style="fill:rgb(232,80,91);fill-rule:nonzero;"/>
            </g>
            <g opacity="0.4">
                <g transform="matrix(1,0,0,1,336.52,258.434)">
                    <path d="M0,18.721L-8.189,34.291L-11.858,41.266C-16.889,50.833 -28.528,54.787 -38.347,50.264L-89.795,32.338L-59.832,-36.066L-8.43,-8.673C1.437,-3.414 5.204,8.825 0,18.721" style="fill-rule:nonzero;"/>
                </g>
            </g>
            <g transform="matrix(-0.411605,0.911362,0.911362,0.411605,149.558,186.717)">
                <path d="M16.096,-24.933C60.491,-24.934 96.481,-17.026 96.482,-7.27C96.482,2.484 60.491,10.392 16.096,10.392C-28.299,10.392 -64.289,2.484 -64.29,-7.269C-64.289,-17.025 -28.3,-24.933 16.096,-24.933" style="fill:rgb(232,80,91);fill-rule:nonzero;"/>
            </g>
            <g opacity="0.5">
                <g transform="matrix(-0.411605,0.911362,0.911362,0.411605,149.558,186.717)">
                    <path d="M16.096,-24.933C60.491,-24.934 96.481,-17.026 96.482,-7.27C96.482,2.484 60.491,10.392 16.096,10.392C-28.299,10.392 -64.289,2.484 -64.29,-7.269C-64.289,-17.025 -28.3,-24.933 16.096,-24.933" style="fill-rule:nonzero;"/>
                </g>
            </g>
            <g transform="matrix(-0.954041,-0.299677,-0.299677,0.954041,335.452,278.024)">
                <path d="M-11.713,18.992L2.903,18.992L-0.412,0.752L-12.339,3.821L-11.713,18.992Z" style="fill:rgb(232,80,91);fill-rule:nonzero;"/>
            </g>
            <g opacity="0.6">
                <g transform="matrix(-0.46546,0.885069,0.885069,0.46546,337.874,294.812)">
                    <path d="M-13.065,-9.418L5.473,-9.418L4.937,-6.463L-12.959,-7.948L-13.065,-9.418Z" style="fill-rule:nonzero;"/>
                </g>
            </g>
            <g transform="matrix(0.411838,-0.911257,-0.911257,-0.411838,323.335,264.787)">
                <path d="M-15.175,-9.796C-15.67,-9.795 -16.072,-2.339 -16.071,6.856C-16.072,16.057 -15.669,23.512 -15.175,23.511C-14.681,23.511 -14.281,16.056 -14.28,6.857C-14.28,-2.34 -14.682,-9.795 -15.175,-9.796" style="fill:rgb(232,80,91);fill-rule:nonzero;"/>
            </g>
            <g transform="matrix(0.441785,-0.897121,-0.897121,-0.441785,328.707,256.854)">
                <path d="M-13.671,-8.508C-14.168,-8.506 -14.569,-1.684 -14.568,6.73C-14.568,15.15 -14.166,21.971 -13.671,21.971C-13.177,21.971 -12.777,15.15 -12.777,6.731C-12.778,-1.685 -13.177,-8.508 -13.671,-8.508" style="fill:rgb(232,80,91);fill-rule:nonzero;"/>
            </g>
            <g transform="matrix(1,0,0,1,320.602,280.356)">
                <path d="M0,12.544C-0.074,12.781 -1.73,12.399 -4.373,11.583C-5.692,11.176 -7.258,10.659 -8.988,10.061C-10.708,9.437 -12.492,8.534 -14.404,7.668C-22.034,4.127 -27.858,0.659 -27.669,0.248C-27.443,-0.237 -21.216,2.533 -13.657,6.04C-11.762,6.899 -10.004,7.846 -8.346,8.538C-6.681,9.211 -5.188,9.839 -3.941,10.393C-1.447,11.5 0.072,12.308 0,12.544" style="fill:rgb(232,80,91);fill-rule:nonzero;"/>
            </g>
            <g transform="matrix(1,0,0,1,157.464,217.261)">
                <path d="M0,-35.135C0,-35.135 -20.863,-48.072 -32.278,-19.885C-43.692,8.303 -21.741,12.937 -21.741,12.937C-12.758,-0.992 -5.461,-16.956 0,-35.135" style="fill:rgb(232,80,91);fill-rule:nonzero;"/>
            </g>
            <g opacity="0.5">
                <g transform="matrix(1,0,0,1,179.653,271.634)">
                    <path d="M0,-123.1C0.122,-123.079 -0.175,-121.165 -0.817,-117.715C-1.477,-114.271 -2.411,-109.271 -3.749,-103.132C-4.63,-100.109 -5.595,-96.808 -6.628,-93.268C-7.151,-91.495 -7.693,-89.662 -8.249,-87.774C-8.529,-86.829 -8.813,-85.872 -9.101,-84.902C-9.413,-83.939 -9.819,-82.995 -10.182,-82.022C-11.684,-78.143 -13.26,-74.076 -14.895,-69.86C-15.305,-68.806 -15.719,-67.743 -16.137,-66.671C-16.542,-65.594 -17.116,-64.581 -17.603,-63.52C-18.623,-61.418 -19.657,-59.285 -20.704,-57.126C-21.754,-54.969 -22.792,-52.836 -23.814,-50.734C-24.346,-49.695 -24.79,-48.618 -25.384,-47.632C-25.969,-46.641 -26.549,-45.657 -27.124,-44.683C-29.428,-40.791 -31.652,-37.037 -33.772,-33.457C-34.314,-32.57 -34.805,-31.667 -35.369,-30.826C-35.955,-29.998 -36.533,-29.181 -37.104,-28.376C-38.245,-26.769 -39.354,-25.208 -40.425,-23.698C-42.571,-20.695 -44.574,-17.893 -46.407,-15.328C-50.396,-10.494 -53.741,-6.681 -56.04,-4.034C-58.352,-1.399 -59.675,0.021 -59.771,-0.058C-59.866,-0.137 -58.724,-1.706 -56.577,-4.477C-54.351,-7.3 -51.226,-11.263 -47.387,-16.13C-45.622,-18.716 -43.696,-21.54 -41.629,-24.567C-40.591,-26.079 -39.517,-27.643 -38.412,-29.253C-37.857,-30.057 -37.296,-30.873 -36.726,-31.7C-36.177,-32.54 -35.699,-33.446 -35.171,-34.332C-33.095,-37.905 -30.916,-41.652 -28.657,-45.536C-28.09,-46.506 -27.52,-47.485 -26.943,-48.471C-26.357,-49.452 -25.92,-50.523 -25.394,-51.558C-24.381,-53.646 -23.354,-55.765 -22.315,-57.909C-21.272,-60.05 -20.243,-62.167 -19.228,-64.253C-18.74,-65.305 -18.167,-66.31 -17.76,-67.378C-17.341,-68.439 -16.925,-69.494 -16.513,-70.538C-14.856,-74.712 -13.258,-78.74 -11.734,-82.58C-11.363,-83.543 -10.948,-84.477 -10.626,-85.429C-10.329,-86.39 -10.034,-87.337 -9.743,-88.271C-9.161,-90.137 -8.595,-91.951 -8.047,-93.704C-6.944,-97.203 -5.916,-100.466 -4.973,-103.454C-3.523,-109.468 -2.343,-114.364 -1.501,-117.851C-0.65,-121.249 -0.122,-123.121 0,-123.1" style="fill-rule:nonzero;"/>
                </g>
            </g>
            <g opacity="0.4">
                <g transform="matrix(1,0,0,1,218.693,329.547)">
                    <path d="M0,14.414C1.903,17.868 3.845,21.377 6.662,24.139C9.479,26.899 13.346,28.855 17.271,28.461C21.195,28.065 24.913,24.806 24.956,20.862C26.839,22.277 29.726,21.511 31.286,19.745C32.847,17.979 33.353,15.526 33.54,13.178C36.098,14.686 39.656,13.49 41.363,11.06C43.07,8.63 43.177,5.355 42.349,2.503C41.521,-0.35 39.87,-2.88 38.241,-5.363C40.211,-5.204 42.298,-5.066 44.061,-5.96C45.823,-6.854 47.013,-9.185 45.984,-10.872C45.381,-11.862 44.224,-12.355 43.116,-12.701C40.029,-13.667 37.863,-14.441 34.649,-14.067C33.903,-14.061 35.936,-5.592 15.766,5.99C3.859,12.828 0,14.414 0,14.414" style="fill-rule:nonzero;"/>
                </g>
            </g>
            <g transform="matrix(1,0,0,1,264.114,365.546)">
                <path d="M0,-9.349C-0.014,-9.256 -1.356,-9.513 -3.533,-9.454C-5.697,-9.406 -8.722,-8.931 -11.709,-7.498C-14.699,-6.066 -16.963,-4.004 -18.356,-2.348C-19.765,-0.688 -20.405,0.52 -20.486,0.472C-20.515,0.457 -20.385,0.14 -20.091,-0.403C-19.798,-0.947 -19.322,-1.706 -18.642,-2.58C-17.297,-4.328 -15.009,-6.495 -11.935,-7.967C-8.861,-9.442 -5.74,-9.869 -3.536,-9.823C-2.429,-9.806 -1.537,-9.702 -0.93,-9.589C-0.322,-9.479 0.006,-9.381 0,-9.349" style="fill:rgb(235,153,110);fill-rule:nonzero;"/>
            </g>
            <g transform="matrix(1,0,0,1,220.008,335.389)">
                <path d="M0,3.201C3.249,6.322 5.471,9.767 8.879,12.911C10.427,14.339 12.833,17.045 14.909,17.404C16.984,17.764 18.314,17.489 19.136,15.549C19.801,13.977 18.606,11.831 17.781,10.536C15.61,7.131 13.534,4.468 11.908,1.82C11.146,0.58 12.132,0.324 12.492,0.898C14.056,2.519 16.389,3.924 17.789,5.688C19.708,8.105 20.056,11.306 25.074,10.294C25.737,10.16 26.399,9.93 26.937,9.519C28.826,8.074 28.905,5.559 28.11,3.546C27.487,1.968 26.394,0.629 25.316,-0.682C27.452,1.73 29.785,4.271 33.18,4.545C35.156,4.704 37.138,3.784 37.937,1.971C38.942,-0.311 37.501,-2.517 36.055,-4.301C33.492,-7.463 30.632,-10.384 27.526,-13.015C26.37,-13.993 24.896,-14.541 23.38,-14.552C21.624,-14.563 19.425,-14.233 18.339,-12.704C16.368,-9.93 16.975,-7.478 16.975,-7.478C16.975,-7.478 12.569,-9.711 9.029,-7.375C5.489,-5.038 4.613,-1.023 4.613,-1.023L0,3.201Z" style="fill:rgb(255,190,157);fill-rule:nonzero;"/>
            </g>
            <g transform="matrix(1,0,0,1,243.453,313.495)">
                <path d="M0,6.374C-1.364,5.001 -1.681,2.489 -0.624,0.415C0.126,-1.054 1.071,-2.48 2.03,-2.804C6.221,-4.218 24.532,-1.05 24.365,3.014C24.194,7.187 22.861,9.023 12.923,7.589C11.175,7.336 8.432,6.991 8.432,6.991L6.033,10.592L0,6.374Z" style="fill:rgb(255,190,157);fill-rule:nonzero;"/>
            </g>
            <g transform="matrix(1,0,0,1,246.733,327.77)">
                <path d="M0,9.117C-0.146,9.206 -1.539,6.362 -4.384,3.813C-7.2,1.23 -10.165,0.122 -10.091,-0.031C-10.07,-0.089 -9.305,0.108 -8.152,0.652C-7.001,1.191 -5.482,2.119 -4.034,3.428C-2.591,4.74 -1.519,6.161 -0.87,7.254C-0.216,8.348 0.055,9.091 0,9.117" style="fill:rgb(235,153,110);fill-rule:nonzero;"/>
            </g>
            <g transform="matrix(1,0,0,1,249.814,320.853)">
                <path d="M0,3.546C-0.091,3.632 -1.3,2.645 -2.949,1.636C-3.77,1.131 -4.53,0.707 -5.098,0.451C-5.664,0.186 -6.039,0.112 -6.038,0.034C-6.041,-0.032 -5.607,-0.086 -4.971,0.106C-4.335,0.286 -3.517,0.675 -2.675,1.193C-0.984,2.227 0.122,3.437 0,3.546" style="fill:rgb(235,153,110);fill-rule:nonzero;"/>
            </g>
            <g transform="matrix(1,0,0,1,252.887,318.279)">
                <path d="M0,2.342C-0.012,2.452 -1.606,2.497 -3.527,1.945C-4.481,1.653 -5.286,1.193 -5.783,0.762C-6.286,0.334 -6.496,-0.023 -6.446,-0.066C-6.35,-0.155 -5.212,0.926 -3.373,1.446C-1.557,1.973 0.027,2.169 0,2.342" style="fill:rgb(235,153,110);fill-rule:nonzero;"/>
            </g>
            <g transform="matrix(1,0,0,1,235.091,332.618)">
                <path d="M0,9.3C-0.059,9.342 -0.707,8.515 -1.67,7.129C-2.653,5.776 -3.903,3.757 -5.944,2.272C-7.985,0.784 -10.388,0.432 -11.998,0.668C-13.641,0.897 -14.499,1.574 -14.549,1.479C-14.566,1.455 -14.374,1.27 -13.965,1.017C-13.56,0.758 -12.908,0.475 -12.058,0.305C-10.373,-0.042 -7.807,0.271 -5.641,1.849C-3.484,3.425 -2.269,5.525 -1.363,6.926C-0.478,8.365 0.058,9.258 0,9.3" style="fill:rgb(235,153,110);fill-rule:nonzero;"/>
            </g>
            <g transform="matrix(-0.108115,-0.994138,-0.994138,0.108115,239.963,375.854)">
                <path d="M-7.514,-8.374C-7.657,-8.373 -7.774,-4.99 -7.773,-0.817C-7.773,3.357 -7.656,6.74 -7.514,6.74C-7.369,6.74 -7.253,3.357 -7.253,-0.817C-7.252,-4.99 -7.37,-8.373 -7.514,-8.374" style="fill:rgb(235,153,110);fill-rule:nonzero;"/>
            </g>
        </g>
        <g id="Stars">
            <g transform="matrix(1,0,0,1,406.631,56.2296)">
                <path d="M0,-6.386L1.129,-4.322L3.193,-3.193L1.129,-2.064L0,0L-1.129,-2.064L-3.193,-3.193L-1.129,-4.322L0,-6.386Z" style="fill:rgb(232,80,91);fill-rule:nonzero;"/>
            </g>
            <g transform="matrix(1,0,0,1,430.236,107.4)">
                <path d="M0,-6.386L1.129,-4.322L3.193,-3.193L1.129,-2.064L0,0L-1.128,-2.064L-3.192,-3.193L-1.128,-4.322L0,-6.386Z" style="fill:rgb(232,80,91);fill-rule:nonzero;"/>
            </g>
            <g transform="matrix(1,0,0,1,51.9035,243.92)">
                <path d="M0,-6.386L1.129,-4.322L3.193,-3.193L1.129,-2.064L0,0L-1.129,-2.064L-3.193,-3.193L-1.129,-4.322L0,-6.386Z" style="fill:rgb(232,80,91);fill-rule:nonzero;"/>
            </g>
            <g transform="matrix(1,0,0,1,375.662,77.3088)">
                <path d="M0,-14.747L2.606,-9.98L7.373,-7.373L2.606,-4.767L0,0L-2.606,-4.767L-7.373,-7.373L-2.606,-9.98L0,-14.747Z" style="fill:rgb(232,80,91);fill-rule:nonzero;"/>
            </g>
            <g transform="matrix(1,0,0,1,73.0612,219.811)">
                <path d="M0,-14.714L2.601,-9.958L7.357,-7.357L2.601,-4.756L0,0L-2.601,-4.756L-7.357,-7.357L-2.601,-9.958L0,-14.714Z" style="fill:rgb(232,80,91);fill-rule:nonzero;"/>
            </g>
            <g transform="matrix(1,0,0,1,436.658,333.28)">
                <path d="M0,-14.714L2.602,-9.958L7.357,-7.358L2.602,-4.756L0,0L-2.601,-4.756L-7.357,-7.358L-2.601,-9.958L0,-14.714Z" style="fill:rgb(232,80,91);fill-rule:nonzero;"/>
            </g>
        </g>
    </g>
</svg>
